<svg width="32" height="33" viewBox="0 0 32 33" fill="none" xmlns="http://www.w3.org/2000/svg">
<path d="M18.6076 26.108C23.6197 26.108 26.1264 26.108 27.6828 24.4994C29.2405 22.8921 29.2405 20.3035 29.2405 15.1276C29.2405 9.95173 29.2405 7.3631 27.6828 5.75584C26.1264 4.14722 23.6197 4.14722 18.6076 4.14722H13.2911C8.27903 4.14722 5.77232 4.14722 4.21592 5.75584C2.6582 7.3631 2.6582 9.95173 2.6582 15.1276C2.6582 20.3035 2.6582 22.8921 4.21592 24.4994C5.08384 25.397 6.24681 25.7937 7.97466 25.968" stroke="white" stroke-width="2.00294" stroke-linecap="round" stroke-linejoin="round"/>
<path d="M18.6077 26.1079C16.9649 26.1079 15.1546 26.7942 13.5025 27.6795C10.847 29.1028 9.51919 29.8152 8.86527 29.3608C8.21134 28.9079 8.33495 27.501 8.5835 24.6887L8.63932 24.0491" stroke="white" stroke-width="2.00294" stroke-linecap="round" stroke-linejoin="round"/>
</svg>
