<svg width="33" height="33" viewBox="0 0 33 33" fill="none" xmlns="http://www.w3.org/2000/svg">
<path d="M16.7691 16.4706C20.4394 16.4706 23.4147 13.3981 23.4147 9.60786C23.4147 5.81767 20.4394 2.74512 16.7691 2.74512C13.0989 2.74512 10.1235 5.81767 10.1235 9.60786C10.1235 13.3981 13.0989 16.4706 16.7691 16.4706Z" stroke="black" stroke-width="2.00294" stroke-linecap="round" stroke-linejoin="round"/>
<path d="M23.4148 19.2158H23.8826C24.8543 19.2161 25.7925 19.5828 26.5208 20.247C27.2492 20.9112 27.7176 21.8272 27.8381 22.8229L28.3578 27.1107C28.4045 27.497 28.3712 27.8891 28.2599 28.2611C28.1487 28.633 27.9622 28.9763 27.7126 29.2681C27.4631 29.5599 27.1564 29.7936 26.8127 29.9536C26.4691 30.1136 26.0964 30.1963 25.7195 30.1962H7.81896C7.442 30.1963 7.06934 30.1136 6.72569 29.9536C6.38205 29.7936 6.0753 29.5599 5.82579 29.2681C5.57628 28.9763 5.38972 28.633 5.2785 28.2611C5.16728 27.8891 5.13393 27.497 5.18067 27.1107L5.69903 22.8229C5.81957 21.8267 6.28838 20.9103 7.01728 20.2461C7.74619 19.5818 8.68498 19.2154 9.65713 19.2158H10.1236" stroke="black" stroke-width="2.00294" stroke-linecap="round" stroke-linejoin="round"/>
</svg>
