<svg width="32" height="32" viewBox="0 0 32 32" fill="none" xmlns="http://www.w3.org/2000/svg">
<path d="M9.65229 10.6667C11.7856 10.6667 13.515 8.88074 13.515 6.67769C13.515 4.47464 11.7856 2.68872 9.65229 2.68872C7.51896 2.68872 5.78955 4.47464 5.78955 6.67769C5.78955 8.88074 7.51896 10.6667 9.65229 10.6667Z" stroke="black" stroke-width="2.00294" stroke-linecap="round" stroke-linejoin="round"/>
<path d="M13.5149 15.9854H8.2332C7.29188 15.9856 6.38305 16.3409 5.67746 16.9843C4.97187 17.6277 4.51809 18.5151 4.40137 19.4797L3.57603 26.2929C3.53074 26.6671 3.56305 27.0469 3.6708 27.4073C3.77855 27.7676 3.95927 28.1001 4.20099 28.3828C4.4427 28.6655 4.73987 28.8918 5.07277 29.0469C5.40567 29.2019 5.76669 29.282 6.13187 29.2819H12.2273" stroke="black" stroke-width="2.00294" stroke-linecap="round" stroke-linejoin="round"/>
<path d="M28.604 26.2929L27.7799 19.4797C27.6632 18.5147 27.209 17.6269 26.5029 16.9834C25.7968 16.3399 24.8873 15.985 23.9455 15.9854H21.1077C20.1664 15.9856 19.2576 16.3409 18.552 16.9843C17.8464 17.6277 17.3926 18.5151 17.2759 19.4797L16.4505 26.2929C16.4052 26.6672 16.4376 27.0471 16.5454 27.4076C16.6532 27.768 16.8341 28.1006 17.0759 28.3833C17.3178 28.666 17.6151 28.8923 17.9482 29.0473C18.2812 29.2022 18.6424 29.2822 19.0077 29.2819H26.0482C26.4133 29.282 26.7744 29.2019 27.1073 29.0469C27.4402 28.8918 27.7373 28.6655 27.979 28.3828C28.2208 28.1001 28.4015 27.7676 28.5092 27.4073C28.617 27.0469 28.6493 26.6671 28.604 26.2929Z" stroke="black" stroke-width="2.00294" stroke-linecap="round" stroke-linejoin="round"/>
<path d="M22.5278 10.6667C24.6611 10.6667 26.3905 8.88074 26.3905 6.67769C26.3905 4.47464 24.6611 2.68872 22.5278 2.68872C20.3944 2.68872 18.665 4.47464 18.665 6.67769C18.665 8.88074 20.3944 10.6667 22.5278 10.6667Z" stroke="black" stroke-width="2.00294" stroke-linecap="round" stroke-linejoin="round"/>
</svg>
