<svg width="32" height="32" viewBox="0 0 32 32" fill="none" xmlns="http://www.w3.org/2000/svg">
<path d="M21.9893 26.2929L21.1652 19.4797C21.0484 18.5147 20.5943 17.6269 19.8881 16.9834C19.182 16.3399 18.2726 15.985 17.3308 15.9854H14.493C13.5516 15.9856 12.6428 16.3409 11.9372 16.9843C11.2316 17.6277 10.7779 18.5151 10.6611 19.4797L9.83579 26.2929C9.7905 26.6672 9.82283 27.0471 9.93066 27.4076C10.0385 27.768 10.2193 28.1006 10.4612 28.3833C10.703 28.666 11.0004 28.8923 11.3334 29.0473C11.6665 29.2022 12.0276 29.2822 12.3929 29.2819H19.4334C19.7986 29.282 20.1596 29.2019 20.4925 29.0469C20.8254 28.8918 21.1226 28.6655 21.3643 28.3828C21.606 28.1001 21.7867 27.7676 21.8945 27.4073C22.0022 27.0469 22.0345 26.6671 21.9893 26.2929Z" stroke="black" stroke-width="2.00294" stroke-linecap="round" stroke-linejoin="round"/>
<path d="M15.913 10.6667C18.0464 10.6667 19.7758 8.88074 19.7758 6.67769C19.7758 4.47464 18.0464 2.68872 15.913 2.68872C13.7797 2.68872 12.0503 4.47464 12.0503 6.67769C12.0503 8.88074 13.7797 10.6667 15.913 10.6667Z" stroke="black" stroke-width="2.00294" stroke-linecap="round" stroke-linejoin="round"/>
<path d="M5.61227 14.6558C7.03449 14.6558 8.18743 13.4652 8.18743 11.9965C8.18743 10.5278 7.03449 9.33716 5.61227 9.33716C4.19005 9.33716 3.03711 10.5278 3.03711 11.9965C3.03711 13.4652 4.19005 14.6558 5.61227 14.6558Z" stroke="black" stroke-width="2.00294" stroke-linecap="round" stroke-linejoin="round"/>
<path d="M26.2133 14.6558C27.6356 14.6558 28.7885 13.4652 28.7885 11.9965C28.7885 10.5278 27.6356 9.33716 26.2133 9.33716C24.7911 9.33716 23.6382 10.5278 23.6382 11.9965C23.6382 13.4652 24.7911 14.6558 26.2133 14.6558Z" stroke="black" stroke-width="2.00294" stroke-linecap="round" stroke-linejoin="round"/>
<path d="M5.61211 18.6448H5.21811C4.60852 18.6447 4.01867 18.8679 3.55349 19.2748C3.08832 19.6816 2.77799 20.2457 2.67771 20.8666L2.24895 23.5259C2.18742 23.907 2.207 24.2972 2.30633 24.6696C2.40567 25.042 2.58237 25.3876 2.82415 25.6823C3.06592 25.9771 3.36697 26.2139 3.70635 26.3763C4.04573 26.5387 4.4153 26.6228 4.78934 26.6227H9.47484" stroke="black" stroke-width="2.00294" stroke-linecap="round" stroke-linejoin="round"/>
<path d="M26.2133 18.6448H26.6073C27.2169 18.6447 27.8068 18.8679 28.2719 19.2748C28.7371 19.6816 29.0474 20.2457 29.1477 20.8666L29.5765 23.5259C29.638 23.907 29.6184 24.2972 29.5191 24.6696C29.4198 25.042 29.2431 25.3876 29.0013 25.6823C28.7595 25.9771 28.4585 26.2139 28.1191 26.3763C27.7797 26.5387 27.4101 26.6228 27.0361 26.6227H22.3506" stroke="black" stroke-width="2.00294" stroke-linecap="round" stroke-linejoin="round"/>
</svg>
