<svg width="30" height="30" viewBox="0 0 30 30" fill="none" xmlns="http://www.w3.org/2000/svg">
<g clip-path="url(#clip0_309_400)">
<path d="M21.9294 7.3618C22.5075 7.3618 22.9761 6.89321 22.9761 6.31518C22.9761 5.73714 22.5075 5.26855 21.9294 5.26855C21.3514 5.26855 20.8828 5.73714 20.8828 6.31518C20.8828 6.89321 21.3514 7.3618 21.9294 7.3618Z" fill="black"/>
<path d="M26.5568 4.12084L20.4033 2.4816L16.343 1.00627C16.0143 0.89125 15.6546 1.06438 15.5396 1.39302C15.5262 1.4312 15.5165 1.47063 15.5107 1.51064C15.341 2.48687 15.341 3.48508 15.5107 4.4613H15.019C14.6708 4.4613 14.3885 4.7436 14.3885 5.09181C14.3885 5.44001 14.6708 5.72231 15.019 5.72231H16.4817L17.087 6.07536L16.9861 6.25191H13.9093C13.5611 6.25191 13.2788 6.53421 13.2788 6.88242C13.2788 7.23062 13.5611 7.51292 13.9093 7.51292H16.2169L15.9143 8.02994H12.8375C12.4893 8.02994 12.207 8.31223 12.207 8.66044C12.207 9.00864 12.4893 9.29094 12.8375 9.29094H15.2082L14.9055 9.80796H11.7657C11.4175 9.80796 11.1352 10.0903 11.1352 10.4385C11.1352 10.7867 11.4175 11.069 11.7657 11.069H14.1868L13.8841 11.586H10.7065C10.3583 11.586 10.076 11.8683 10.076 12.2165C10.076 12.5647 10.3583 12.847 10.7065 12.847H13.2285L12.8754 13.4522H6.5705C6.44029 13.4451 6.30978 13.4451 6.17962 13.4522H6.07873C5.99148 13.4331 5.90117 13.4331 5.81392 13.4522C5.51643 13.5164 5.22834 13.6181 4.95645 13.7549H4.80513C3.69887 13.7556 2.7905 12.8807 2.74978 11.7752C2.74978 11.427 2.46748 11.1447 2.11927 11.1447C1.77107 11.1447 1.48877 11.427 1.48877 11.7752C1.49202 13.1465 2.33904 14.3744 3.61978 14.8646C3.11122 15.4979 2.83128 16.2843 2.82537 17.0965V27.676C2.82537 28.9435 3.85284 29.971 5.12029 29.971C5.12449 29.971 5.12875 29.971 5.13294 29.9709C5.87693 29.9709 7.41527 29.9709 7.41527 28.3695V27.2599C7.41527 26.0621 8.38629 25.091 9.58411 25.091H16.7716C17.9764 25.098 18.9474 26.0803 18.9405 27.2851V27.2851V27.676C18.9405 28.9386 19.9603 29.964 21.2228 29.971C21.9668 29.971 23.5178 29.971 23.5178 28.3696V11.1196H26.4306C27.6911 11.1196 28.7129 10.0977 28.7129 8.83723V6.31492C28.6752 5.00356 27.6917 4.51178 26.5568 4.12084ZM6.62092 14.713H12.5601V16.6044C12.5325 18.0799 11.3247 19.2596 9.84898 19.2524H9.31937C7.82903 19.2524 6.62092 18.0443 6.62092 16.554V14.713ZM27.4143 8.84947C27.4143 9.41353 26.957 9.87085 26.3929 9.87085H21.5634C21.2152 9.8712 20.9332 10.1537 20.9335 10.5019C20.9339 10.8497 21.2156 11.1315 21.5634 11.1318H22.2695V28.3692C22.2695 28.6088 22.2695 28.7097 21.2356 28.7097C20.6645 28.7029 20.2071 28.2345 20.2139 27.6635C20.214 27.6592 20.2141 27.6548 20.2142 27.6505V27.2596C20.2142 25.3654 18.6786 23.8297 16.7843 23.8297H9.58417C7.68995 23.8297 6.15433 25.3653 6.15433 27.2596V28.3692C6.15433 28.6088 6.15433 28.7097 5.13294 28.7097C4.5619 28.7097 4.09897 28.2468 4.09897 27.6757V17.0962C4.09956 16.2188 4.58466 15.4136 5.35992 15.003V16.6044C5.39426 18.7685 7.15496 20.5068 9.31937 20.5134H9.84898C12.0134 20.5138 13.7798 18.7811 13.821 16.617V14.2085L18.4487 6.11313C18.6209 5.81339 18.5197 5.43097 18.2218 5.25565L16.7969 4.42341C16.5892 3.77636 16.5373 3.08935 16.6455 2.41848L20.0249 3.67942L26.1784 5.31866C27.2881 5.72219 27.4394 5.96175 27.4394 6.37787L27.4143 8.84947Z" fill="black" stroke="black" stroke-width="0.5"/>
</g>
<defs>
<clipPath id="clip0_309_400">
<rect width="29" height="29" fill="white" transform="translate(0.601074 0.970703)"/>
</clipPath>
</defs>
</svg>
