<svg width="33" height="33" viewBox="0 0 33 33" fill="none" xmlns="http://www.w3.org/2000/svg">
<path d="M8.25928 10.8864V21.9903C8.25928 24.1745 9.09947 26.2692 10.595 27.8136C12.0906 29.358 14.1189 30.2256 16.234 30.2256C18.349 30.2256 20.3774 29.358 21.8729 27.8136C23.3685 26.2692 24.2086 24.1745 24.2086 21.9903V8.26485C24.2086 6.80876 23.6485 5.41231 22.6515 4.3827C21.6545 3.35309 20.3022 2.77466 18.8922 2.77466C17.4822 2.77466 16.1299 3.35309 15.1329 4.3827C14.1359 5.41231 13.5757 6.80876 13.5757 8.26485V20.8676C13.5757 21.2281 13.6445 21.5851 13.7781 21.9181C13.9117 22.2512 14.1075 22.5538 14.3543 22.8087C14.6012 23.0636 14.8942 23.2658 15.2167 23.4037C15.5392 23.5417 15.8849 23.6127 16.234 23.6127C16.939 23.6127 17.6151 23.3235 18.1136 22.8087C18.6121 22.2939 18.8922 21.5956 18.8922 20.8676V11.01" stroke="black" stroke-width="2.00294" stroke-linecap="round" stroke-linejoin="round"/>
</svg>
