<svg width="33" height="33" viewBox="0 0 33 33" fill="none" xmlns="http://www.w3.org/2000/svg">
<path d="M4.0918 6.89233H9.40825M28.0159 6.89233H14.7247M4.0918 16.5002H20.0412M28.0159 16.5002H25.3576M4.0918 26.108H6.75003M28.0159 26.108H12.0665" stroke="black" stroke-width="2.00294" stroke-linecap="round" stroke-linejoin="round"/>
<path d="M12.0664 9.63741C13.5345 9.63741 14.7247 8.40839 14.7247 6.89231C14.7247 5.37624 13.5345 4.14722 12.0664 4.14722C10.5983 4.14722 9.4082 5.37624 9.4082 6.89231C9.4082 8.40839 10.5983 9.63741 12.0664 9.63741Z" stroke="black" stroke-width="2.00294" stroke-linecap="round" stroke-linejoin="round"/>
<path d="M22.6992 19.2451C24.1673 19.2451 25.3575 18.0161 25.3575 16.5C25.3575 14.9839 24.1673 13.7549 22.6992 13.7549C21.2311 13.7549 20.041 14.9839 20.041 16.5C20.041 18.0161 21.2311 19.2451 22.6992 19.2451Z" stroke="black" stroke-width="2.00294" stroke-linecap="round" stroke-linejoin="round"/>
<path d="M9.40823 28.8532C10.8763 28.8532 12.0665 27.6242 12.0665 26.1081C12.0665 24.5921 10.8763 23.363 9.40823 23.363C7.94013 23.363 6.75 24.5921 6.75 26.1081C6.75 27.6242 7.94013 28.8532 9.40823 28.8532Z" stroke="black" stroke-width="2.00294" stroke-linecap="round" stroke-linejoin="round"/>
</svg>
