<svg width="36" height="34" viewBox="0 0 36 34" fill="none" xmlns="http://www.w3.org/2000/svg">
<path d="M17.1924 7.67336L17.5551 4.12C17.6985 2.69206 19.1002 1.7231 20.5161 2.07108C22.6463 2.59606 24.1426 4.47849 24.1426 6.6369V11.1892C24.1426 12.2017 24.1426 12.7087 24.3728 13.0791C24.5036 13.2906 24.6834 13.4691 24.8978 13.5966C25.2762 13.8231 25.7918 13.8231 26.8214 13.8231H27.4458C30.1309 13.8231 31.4727 13.8231 32.2989 14.4081C32.9186 14.8476 33.3553 15.491 33.5288 16.22C33.759 17.195 33.2434 18.4144 32.2106 20.8503L31.6966 22.0653C31.3985 22.7689 31.2765 23.5289 31.3403 24.2852C31.7061 28.596 28.1127 32.2274 23.72 31.9889L7.28435 31.0904C5.48847 30.9929 4.59132 30.9434 3.78089 30.2609C2.96888 29.5785 2.81594 28.875 2.51163 27.4696C1.86397 24.4796 1.89353 21.3927 2.59835 18.4144C3.04456 16.5425 4.92401 15.5345 6.86494 15.7745C12.0113 16.4045 16.6768 12.7447 17.1924 7.67336Z" stroke="black" stroke-width="3.12558" stroke-linecap="round" stroke-linejoin="round"/>
</svg>
