<svg width="36" height="31" viewBox="0 0 36 31" fill="none" xmlns="http://www.w3.org/2000/svg">
<path d="M21.4333 25.3902C27.3791 25.3902 30.3527 25.3902 32.1991 23.677C34.047 21.9652 34.047 19.2082 34.047 13.6956C34.047 8.18305 34.047 5.42604 32.1991 3.71424C30.3527 2.00098 27.3791 2.00098 21.4333 2.00098H15.1264C9.18062 2.00098 6.20694 2.00098 4.3606 3.71424C2.5127 5.42604 2.5127 8.18305 2.5127 13.6956C2.5127 19.2082 2.5127 21.9652 4.3606 23.677C5.3902 24.633 6.76982 25.0555 8.81955 25.2411" stroke="black" stroke-width="3.12558" stroke-linecap="round" stroke-linejoin="round"/>
<path d="M18.2803 13.6953V13.7103" stroke="black" stroke-width="3.12558" stroke-linecap="round" stroke-linejoin="round"/>
<path d="M11.9731 13.6953V13.7103" stroke="black" stroke-width="3.12558" stroke-linecap="round" stroke-linejoin="round"/>
<path d="M24.5869 13.6953V13.7103" stroke="black" stroke-width="3.12558" stroke-linecap="round" stroke-linejoin="round"/>
<path d="M21.4333 25.3902C19.4844 25.3902 17.337 26.1212 15.3771 27.0642C12.2268 28.5803 10.6517 29.3391 9.87595 28.8552C9.10021 28.3727 9.24684 26.8742 9.54169 23.8786L9.60791 23.1973" stroke="black" stroke-width="3.12558" stroke-linecap="round" stroke-linejoin="round"/>
</svg>
