<svg width="24" height="22" viewBox="0 0 24 22" fill="none" xmlns="http://www.w3.org/2000/svg">
<path d="M5.39209 4.834L5.87132 2.608C5.96895 2.15444 6.23286 1.74633 6.6181 1.45314C7.00335 1.15995 7.48613 0.999817 7.98424 1H15.2211C15.7192 0.999817 16.202 1.15995 16.5873 1.45314C16.9725 1.74633 17.2364 2.15444 17.334 2.608L17.8133 4.834C17.8885 5.18279 18.0688 5.50459 18.3332 5.76198C18.5976 6.01938 18.9353 6.20178 19.307 6.288C20.1825 6.49138 20.9597 6.96068 21.515 7.6213C22.0704 8.28192 22.372 9.09595 22.3719 9.934V17C22.3719 18.0609 21.918 19.0783 21.1102 19.8284C20.3023 20.5786 19.2067 21 18.0642 21H5.14117C3.9987 21 2.90303 20.5786 2.09518 19.8284C1.28734 19.0783 0.833496 18.0609 0.833496 17V9.934C0.833414 9.09595 1.13501 8.28192 1.69034 7.6213C2.24567 6.96068 3.02287 6.49138 3.89841 6.288C4.27006 6.20178 4.60773 6.01938 4.87215 5.76198C5.13657 5.50459 5.31687 5.18279 5.39209 4.834Z" stroke="#858585" stroke-width="1.5" stroke-linecap="round" stroke-linejoin="round"/>
<path d="M11.6026 17C13.9817 17 15.9103 15.2091 15.9103 13C15.9103 10.7909 13.9817 9 11.6026 9C9.22353 9 7.29492 10.7909 7.29492 13C7.29492 15.2091 9.22353 17 11.6026 17Z" stroke="#858585" stroke-width="1.5" stroke-linecap="round" stroke-linejoin="round"/>
<path d="M10.5259 5H12.6797" stroke="#858585" stroke-width="1.5" stroke-linecap="round" stroke-linejoin="round"/>
</svg>
