<svg width="25" height="25" viewBox="0 0 25 25" fill="none" xmlns="http://www.w3.org/2000/svg">
<g id="Group 384">
<path id="Vector" d="M1 3H6.11111M24 3H11.2222M1 12H16.3333M24 12H21.4444M1 21H3.55556M24 21H8.66667" stroke="black" stroke-width="2" stroke-linecap="round" stroke-linejoin="round"/>
<path id="Vector_2" d="M8.5 6C9.88071 6 11 4.88071 11 3.5C11 2.11929 9.88071 1 8.5 1C7.11929 1 6 2.11929 6 3.5C6 4.88071 7.11929 6 8.5 6Z" stroke="black" stroke-width="2" stroke-linecap="round" stroke-linejoin="round"/>
<path id="Vector_3" d="M18.5 15C19.8807 15 21 13.8807 21 12.5C21 11.1193 19.8807 10 18.5 10C17.1193 10 16 11.1193 16 12.5C16 13.8807 17.1193 15 18.5 15Z" stroke="black" stroke-width="2" stroke-linecap="round" stroke-linejoin="round"/>
<path id="Vector_4" d="M5.5 24C6.88071 24 8 22.8807 8 21.5C8 20.1193 6.88071 19 5.5 19C4.11929 19 3 20.1193 3 21.5C3 22.8807 4.11929 24 5.5 24Z" stroke="black" stroke-width="2" stroke-linecap="round" stroke-linejoin="round"/>
</g>
</svg>
